<?xml version="1.0" encoding="UTF-8" standalone="no"?>
<!-- Uploaded to: SVG Repo, www.svgrepo.com, Generator: SVG Repo Mixer Tools -->

<svg
   fill="#000000"
   width="800px"
   height="800px"
   viewBox="0 -0.5 25 25"
   version="1.1"
   id="svg1"
   sodipodi:docname="github-play.svg"
   xml:space="preserve"
   inkscape:version="1.4.2 (f4327f4, 2025-05-13)"
   inkscape:export-filename="github-play.png"
   inkscape:export-xdpi="122.88"
   inkscape:export-ydpi="122.88"
   xmlns:inkscape="http://www.inkscape.org/namespaces/inkscape"
   xmlns:sodipodi="http://sodipodi.sourceforge.net/DTD/sodipodi-0.dtd"
   xmlns="http://www.w3.org/2000/svg"
   xmlns:svg="http://www.w3.org/2000/svg"><defs
     id="defs1" /><sodipodi:namedview
     id="namedview1"
     pagecolor="#ffffff"
     bordercolor="#000000"
     borderopacity="0.25"
     inkscape:showpageshadow="2"
     inkscape:pageopacity="0.0"
     inkscape:pagecheckerboard="0"
     inkscape:deskcolor="#d1d1d1"
     inkscape:zoom="1.05"
     inkscape:cx="400"
     inkscape:cy="400"
     inkscape:window-width="1920"
     inkscape:window-height="1111"
     inkscape:window-x="-9"
     inkscape:window-y="-9"
     inkscape:window-maximized="1"
     inkscape:current-layer="svg1" /><ellipse
     style="fill:#ffffff;fill-opacity:1;stroke-width:0.0282542"
     id="path3"
     cx="12.217262"
     cy="12.074406"
     rx="12.127976"
     ry="11.770833" /><path
     d="m12.301 0h.093c2.242 0 4.34.613 6.137 1.68l-.055-.031c1.871 1.094 3.386 2.609 4.449 4.422l.031.058c1.04 1.769 1.654 3.896 1.654 6.166 0 5.406-3.483 10-8.327 11.658l-.087.026c-.063.02-.135.031-.209.031-.162 0-.312-.054-.433-.144l.002.001c-.128-.115-.208-.281-.208-.466 0-.005 0-.01 0-.014v.001q0-.048.008-1.226t.008-2.154c.007-.075.011-.161.011-.249 0-.792-.323-1.508-.844-2.025.618-.061 1.176-.163 1.718-.305l-.076.017c.573-.16 1.073-.373 1.537-.642l-.031.017c.508-.28.938-.636 1.292-1.058l.006-.007c.372-.476.663-1.036.84-1.645l.009-.035c.209-.683.329-1.468.329-2.281 0-.045 0-.091-.001-.136v.007c0-.022.001-.047.001-.072 0-1.248-.482-2.383-1.269-3.23l.003.003c.168-.44.265-.948.265-1.479 0-.649-.145-1.263-.404-1.814l.011.026c-.115-.022-.246-.035-.381-.035-.334 0-.649.078-.929.216l.012-.005c-.568.21-1.054.448-1.512.726l.038-.022-.609.384c-.922-.264-1.981-.416-3.075-.416s-2.153.152-3.157.436l.081-.02q-.256-.176-.681-.433c-.373-.214-.814-.421-1.272-.595l-.066-.022c-.293-.154-.64-.244-1.009-.244-.124 0-.246.01-.364.03l.013-.002c-.248.524-.393 1.139-.393 1.788 0 .531.097 1.04.275 1.509l-.01-.029c-.785.844-1.266 1.979-1.266 3.227 0 .025 0 .051.001.076v-.004c-.001.039-.001.084-.001.13 0 .809.12 1.591.344 2.327l-.015-.057c.189.643.476 1.202.85 1.693l-.009-.013c.354.435.782.793 1.267 1.062l.022.011c.432.252.933.465 1.46.614l.046.011c.466.125 1.024.227 1.595.284l.046.004c-.431.428-.718 1-.784 1.638l-.001.012c-.207.101-.448.183-.699.236l-.021.004c-.256.051-.549.08-.85.08-.022 0-.044 0-.066 0h.003c-.394-.008-.756-.136-1.055-.348l.006.004c-.371-.259-.671-.595-.881-.986l-.007-.015c-.198-.336-.459-.614-.768-.827l-.009-.006c-.225-.169-.49-.301-.776-.38l-.016-.004-.32-.048c-.023-.002-.05-.003-.077-.003-.14 0-.273.028-.394.077l.007-.003q-.128.072-.08.184c.039.086.087.16.145.225l-.001-.001c.061.072.13.135.205.19l.003.002.112.08c.283.148.516.354.693.603l.004.006c.191.237.359.505.494.792l.01.024.16.368c.135.402.38.738.7.981l.005.004c.3.234.662.402 1.057.478l.016.002c.33.064.714.104 1.106.112h.007c.045.002.097.002.15.002.261 0 .517-.021.767-.062l-.027.004.368-.064q0 .609.008 1.418t.008.873v.014c0 .185-.08.351-.208.466h-.001c-.119.089-.268.143-.431.143-.075 0-.147-.011-.214-.032l.005.001c-4.929-1.689-8.409-6.283-8.409-11.69 0-2.268.612-4.393 1.681-6.219l-.032.058c1.094-1.871 2.609-3.386 4.422-4.449l.058-.031c1.739-1.034 3.835-1.645 6.073-1.645h.098-.005zm-7.64 17.666q.048-.112-.112-.192-.16-.048-.208.032-.048.112.112.192.144.096.208-.032zm.497.545q.112-.08-.032-.256-.16-.144-.256-.048-.112.08.032.256.159.157.256.047zm.48.72q.144-.112 0-.304-.128-.208-.272-.096-.144.08 0 .288t.272.112zm.672.673q.128-.128-.064-.304-.192-.192-.32-.048-.144.128.064.304.192.192.32.044zm.913.4q.048-.176-.208-.256-.24-.064-.304.112t.208.24q.24.097.304-.096zm1.009.08q0-.208-.272-.176-.256 0-.256.176 0 .208.272.176.256.001.256-.175zm.929-.16q-.032-.176-.288-.144-.256.048-.224.24t.288.128.225-.224z"
     id="path1" /><g
     style="fill:none"
     id="g1"
     transform="matrix(1.0730028,0,0,0.90385733,10.878872,10.241487)"><g
       id="g2"><path
         fill="#dfec26"
         d="m 1.43588,12.3299 c 0.00359,0.2084 0.06422,0.4118 0.17529,0.5881 0.11107,0.1763 0.26834,0.3188 0.45471,0.4119 0.18611,0.1052 0.39624,0.1605 0.61,0.1605 0.21376,0 0.4239,-0.0553 0.61,-0.1605 L 11.9359,7.97994 c 0.1882,-0.09067 0.347,-0.23262 0.4581,-0.40952 0.1112,-0.1769 0.1701,-0.38157 0.1701,-0.59048 0,-0.20891 -0.0589,-0.41358 -0.1701,-0.59048 C 12.2829,6.21256 12.1241,6.07061 11.9359,5.97994 L 3.28588,0.669938 c -0.1861,-0.105157 -0.39624,-0.160417 -0.61,-0.160417 -0.21376,0 -0.42389,0.05526 -0.61,0.160417 C 1.87951,0.763127 1.72224,0.905615 1.61117,1.08192 1.5001,1.25822 1.43947,1.4616 1.43588,1.66994 Z"
         stroke-width="1"
         id="path1-0" /><path
         stroke="#a4a831"
         stroke-linecap="round"
         stroke-linejoin="round"
         d="m 1.43588,12.3299 c 0.00359,0.2084 0.06422,0.4118 0.17529,0.5881 0.11107,0.1763 0.26834,0.3188 0.45471,0.4119 0.18611,0.1052 0.39624,0.1605 0.61,0.1605 0.21376,0 0.4239,-0.0553 0.61,-0.1605 L 11.9359,7.97994 c 0.1882,-0.09067 0.347,-0.23262 0.4581,-0.40952 0.1112,-0.1769 0.1701,-0.38157 0.1701,-0.59048 0,-0.20891 -0.0589,-0.41358 -0.1701,-0.59048 C 12.2829,6.21256 12.1241,6.07061 11.9359,5.97994 L 3.28588,0.669938 c -0.1861,-0.105157 -0.39624,-0.160417 -0.61,-0.160417 -0.21376,0 -0.42389,0.05526 -0.61,0.160417 C 1.87951,0.763127 1.72224,0.905615 1.61117,1.08192 1.5001,1.25822 1.43947,1.4616 1.43588,1.66994 Z"
         stroke-width="1"
         id="path2" /></g></g></svg>
